<?xml version="1.0" standalone="no"?>
<!DOCTYPE svg PUBLIC "-//W3C//DTD SVG 20010904//EN"
 "http://www.w3.org/TR/2001/REC-SVG-20010904/DTD/svg10.dtd">
<svg version="1.0" xmlns="http://www.w3.org/2000/svg"
 width="310.000000pt" height="310.000000pt" viewBox="0 0 310.000000 310.000000"
 preserveAspectRatio="xMidYMid meet">
<metadata>
Created by potrace 1.11, written by Peter Selinger 2001-2013
</metadata>
<g transform="translate(0.000000,310.000000) scale(0.100000,-0.100000)"
fill="#000000" stroke="none">
<path d="M0 1550 l0 -1550 1550 0 1550 0 0 1550 0 1550 -1550 0 -1550 0 0
-1550z m660 133 c0 -513 5 -920 10 -963 6 -41 18 -91 29 -112 l18 -38 -194 0
c-182 0 -195 1 -188 18 42 98 40 56 40 887 l0 790 -28 57 c-16 32 -47 74 -70
94 -42 36 -129 84 -177 99 -28 8 -60 33 -60 47 0 4 139 8 310 8 l310 0 0 -887z
m2303 812 c-66 -61 -87 -88 -118 -155 -38 -80 -39 -80 -77 -80 -31 0 -44 6
-69 34 -88 101 -309 176 -520 176 l-89 0 0 -852 c0 -469 4 -881 9 -915 5 -35
17 -77 25 -94 9 -18 16 -34 16 -36 0 -1 -85 -3 -190 -3 -104 0 -190 2 -190 5
0 4 7 19 15 35 29 57 35 218 35 1039 l0 824 -127 -6 c-212 -10 -367 -62 -468
-158 -43 -40 -58 -49 -88 -49 -36 0 -38 2 -81 88 -34 67 -59 102 -106 145 -34
31 -65 57 -71 57 -5 0 -9 5 -9 10 0 7 371 10 1092 10 l1091 0 -80 -75z"/>
</g>
</svg>
